<mxfile host="app.diagrams.net" agent="Mozilla/5.0 (X11; Ubuntu; Linux x86_64; rv:138.0) Gecko/20100101 Firefox/138.0" version="27.0.6" pages="2">
  <diagram name="Page-1" id="AIzPF3pd99mVdx-LrIdQ">
    <mxGraphModel dx="961" dy="424" grid="1" gridSize="10" guides="1" tooltips="1" connect="1" arrows="1" fold="1" page="1" pageScale="1" pageWidth="850" pageHeight="1100" math="0" shadow="0">
      <root>
        <mxCell id="0" />
        <mxCell id="1" parent="0" />
        <mxCell id="zP9zvtam1xZaHFGVFROY-1" value="" style="fillColorStyles=neutralFill;neutralFill=#9DA6A8;shape=mxgraph.networks2.icon;aspect=fixed;fillColor=#EDEDED;strokeColor=#000000;gradientColor=#5B6163;network2IconShadow=1;network2bgFillColor=none;network2Icon=mxgraph.networks2.router;network2IconXOffset=0.0001;network2IconYOffset=-0.1142;network2IconW=1;network2IconH=0.5485;" parent="1" vertex="1">
          <mxGeometry x="310" y="230" width="54.69" height="30" as="geometry" />
        </mxCell>
        <mxCell id="zP9zvtam1xZaHFGVFROY-2" value="" style="shape=mxgraph.networks2.icon;aspect=fixed;fillColor=#EDEDED;strokeColor=#000000;gradientColor=#5B6163;network2IconShadow=1;network2bgFillColor=none;network2Icon=mxgraph.networks2.cloud;network2IconYOffset=-0.08;network2IconW=1.0004;network2IconH=0.7222;" parent="1" vertex="1">
          <mxGeometry x="310" y="110" width="50.019999999999996" height="36.11" as="geometry" />
        </mxCell>
        <mxCell id="zP9zvtam1xZaHFGVFROY-3" style="edgeStyle=orthogonalEdgeStyle;rounded=0;orthogonalLoop=1;jettySize=auto;html=1;entryX=0.534;entryY=0.48;entryDx=0;entryDy=0;entryPerimeter=0;" parent="1" source="zP9zvtam1xZaHFGVFROY-2" target="zP9zvtam1xZaHFGVFROY-1" edge="1">
          <mxGeometry relative="1" as="geometry" />
        </mxCell>
        <mxCell id="zP9zvtam1xZaHFGVFROY-4" value="" style="shape=mxgraph.networks2.icon;aspect=fixed;fillColor=#EDEDED;strokeColor=#000000;gradientColor=#5B6163;network2IconShadow=1;network2bgFillColor=none;network2Icon=mxgraph.networks2.firewall;network2IconXOffset=0.0001;network2IconYOffset=0.0001;network2IconW=1;network2IconH=0.608;" parent="1" vertex="1">
          <mxGeometry x="410" y="320" width="49.34" height="30" as="geometry" />
        </mxCell>
        <mxCell id="zP9zvtam1xZaHFGVFROY-5" style="edgeStyle=orthogonalEdgeStyle;rounded=0;orthogonalLoop=1;jettySize=auto;html=1;entryX=0.573;entryY=0.202;entryDx=0;entryDy=0;entryPerimeter=0;" parent="1" source="zP9zvtam1xZaHFGVFROY-1" target="zP9zvtam1xZaHFGVFROY-4" edge="1">
          <mxGeometry relative="1" as="geometry">
            <Array as="points">
              <mxPoint x="430" y="245" />
              <mxPoint x="430" y="326" />
            </Array>
          </mxGeometry>
        </mxCell>
        <mxCell id="zP9zvtam1xZaHFGVFROY-20" value="" style="edgeStyle=orthogonalEdgeStyle;rounded=0;orthogonalLoop=1;jettySize=auto;html=1;" parent="1" target="zP9zvtam1xZaHFGVFROY-13" edge="1">
          <mxGeometry relative="1" as="geometry">
            <mxPoint x="450" y="335" as="sourcePoint" />
          </mxGeometry>
        </mxCell>
        <mxCell id="zP9zvtam1xZaHFGVFROY-6" value="&lt;div&gt;PFsense / IPfire &lt;br&gt;&lt;/div&gt;&lt;div&gt;&lt;br&gt;&lt;/div&gt;&lt;div&gt;IDS /IPS&lt;/div&gt;" style="text;html=1;align=center;verticalAlign=middle;whiteSpace=wrap;rounded=0;" parent="1" vertex="1">
          <mxGeometry x="450" y="270" width="60" height="30" as="geometry" />
        </mxCell>
        <mxCell id="zP9zvtam1xZaHFGVFROY-12" style="edgeStyle=orthogonalEdgeStyle;rounded=0;orthogonalLoop=1;jettySize=auto;html=1;" parent="1" source="zP9zvtam1xZaHFGVFROY-7" target="zP9zvtam1xZaHFGVFROY-11" edge="1">
          <mxGeometry relative="1" as="geometry" />
        </mxCell>
        <mxCell id="zP9zvtam1xZaHFGVFROY-7" value="" style="fillColorStyles=neutralFill;neutralFill=#9DA6A8;shape=mxgraph.networks2.icon;aspect=fixed;fillColor=#EDEDED;strokeColor=#000000;gradientColor=#5B6163;network2IconShadow=1;network2bgFillColor=none;network2Icon=mxgraph.networks2.router;network2IconXOffset=0.0001;network2IconYOffset=-0.1142;network2IconW=1;network2IconH=0.5485;" parent="1" vertex="1">
          <mxGeometry x="404.65" y="410" width="54.69" height="30" as="geometry" />
        </mxCell>
        <mxCell id="zP9zvtam1xZaHFGVFROY-8" style="edgeStyle=orthogonalEdgeStyle;rounded=0;orthogonalLoop=1;jettySize=auto;html=1;entryX=0.51;entryY=0.66;entryDx=0;entryDy=0;entryPerimeter=0;" parent="1" source="zP9zvtam1xZaHFGVFROY-4" target="zP9zvtam1xZaHFGVFROY-7" edge="1">
          <mxGeometry relative="1" as="geometry" />
        </mxCell>
        <mxCell id="zP9zvtam1xZaHFGVFROY-9" value="" style="shape=mxgraph.networks2.icon;aspect=fixed;fillColor=#EDEDED;strokeColor=#000000;gradientColor=#5B6163;network2IconShadow=1;network2bgFillColor=none;network2Icon=mxgraph.networks2.lan;network2IconYOffset=0.0558;network2IconW=1.0834;network2IconH=0.7564;" parent="1" vertex="1">
          <mxGeometry x="530" y="500" width="42.97" height="30" as="geometry" />
        </mxCell>
        <mxCell id="zP9zvtam1xZaHFGVFROY-10" style="edgeStyle=orthogonalEdgeStyle;rounded=0;orthogonalLoop=1;jettySize=auto;html=1;entryX=0.594;entryY=0.025;entryDx=0;entryDy=0;entryPerimeter=0;" parent="1" source="zP9zvtam1xZaHFGVFROY-7" target="zP9zvtam1xZaHFGVFROY-9" edge="1">
          <mxGeometry relative="1" as="geometry" />
        </mxCell>
        <mxCell id="zP9zvtam1xZaHFGVFROY-11" value="" style="shape=mxgraph.networks2.icon;aspect=fixed;fillColor=#EDEDED;strokeColor=#000000;gradientColor=#5B6163;network2IconShadow=1;network2bgFillColor=none;network2Icon=mxgraph.networks2.network_security;network2IconW=1;network2IconH=0.86;" parent="1" vertex="1">
          <mxGeometry x="200" y="490" width="50" height="43" as="geometry" />
        </mxCell>
        <mxCell id="zP9zvtam1xZaHFGVFROY-13" value="OpenWRT" style="text;html=1;align=center;verticalAlign=middle;whiteSpace=wrap;rounded=0;" parent="1" vertex="1">
          <mxGeometry x="459.34" y="380" width="60" height="30" as="geometry" />
        </mxCell>
        <mxCell id="zP9zvtam1xZaHFGVFROY-14" value="" style="shape=mxgraph.networks2.icon;aspect=fixed;fillColor=#EDEDED;strokeColor=#000000;gradientColor=#5B6163;network2IconShadow=1;network2bgFillColor=none;network2Icon=mxgraph.networks2.pc;network2IconYOffset=-0.0593;network2IconW=0.9999;network2IconH=0.7096;" parent="1" vertex="1">
          <mxGeometry x="620" y="480" width="49.995" height="35.480000000000004" as="geometry" />
        </mxCell>
        <mxCell id="zP9zvtam1xZaHFGVFROY-15" value="SIEM (Wazuh / Splunk" style="text;html=1;align=center;verticalAlign=middle;whiteSpace=wrap;rounded=0;" parent="1" vertex="1">
          <mxGeometry x="609.99" y="420" width="60" height="30" as="geometry" />
        </mxCell>
        <mxCell id="zP9zvtam1xZaHFGVFROY-16" value="" style="endArrow=classic;html=1;rounded=0;exitX=0.75;exitY=0;exitDx=0;exitDy=0;" parent="1" source="zP9zvtam1xZaHFGVFROY-15" target="zP9zvtam1xZaHFGVFROY-17" edge="1">
          <mxGeometry width="50" height="50" relative="1" as="geometry">
            <mxPoint x="690" y="460" as="sourcePoint" />
            <mxPoint x="730" y="270" as="targetPoint" />
          </mxGeometry>
        </mxCell>
        <mxCell id="zP9zvtam1xZaHFGVFROY-17" value="&lt;div&gt;BOT Telegram&lt;/div&gt;&lt;div&gt;&lt;br&gt;&lt;/div&gt;&lt;div&gt;Donde recibirÃ¡ las alertas del SIEM&lt;/div&gt;" style="text;html=1;align=center;verticalAlign=middle;whiteSpace=wrap;rounded=0;" parent="1" vertex="1">
          <mxGeometry x="650" y="220" width="110" height="65" as="geometry" />
        </mxCell>
        <mxCell id="zP9zvtam1xZaHFGVFROY-19" value="Internet -&amp;gt; ISP -&amp;gt; Yoigo" style="text;html=1;align=center;verticalAlign=middle;whiteSpace=wrap;rounded=0;" parent="1" vertex="1">
          <mxGeometry x="365" y="113.06" width="125" height="26.94" as="geometry" />
        </mxCell>
        <mxCell id="zP9zvtam1xZaHFGVFROY-21" value="IoT" style="text;html=1;align=center;verticalAlign=middle;whiteSpace=wrap;rounded=0;" parent="1" vertex="1">
          <mxGeometry x="120" y="490" width="60" height="30" as="geometry" />
        </mxCell>
        <mxCell id="zP9zvtam1xZaHFGVFROY-22" value="LAN" style="text;html=1;align=center;verticalAlign=middle;whiteSpace=wrap;rounded=0;" parent="1" vertex="1">
          <mxGeometry x="460" y="490" width="60" height="30" as="geometry" />
        </mxCell>
        <mxCell id="zP9zvtam1xZaHFGVFROY-23" value="" style="endArrow=none;html=1;rounded=0;" parent="1" target="zP9zvtam1xZaHFGVFROY-15" edge="1">
          <mxGeometry width="50" height="50" relative="1" as="geometry">
            <mxPoint x="460" y="430" as="sourcePoint" />
            <mxPoint x="460" y="320" as="targetPoint" />
          </mxGeometry>
        </mxCell>
        <mxCell id="zP9zvtam1xZaHFGVFROY-24" value="" style="shape=mxgraph.networks2.icon;aspect=fixed;fillColor=#EDEDED;strokeColor=#000000;gradientColor=#5B6163;network2IconShadow=1;network2bgFillColor=none;network2Icon=mxgraph.networks2.threat;network2IconYOffset=-0.0472;network2IconW=1.0625;network2IconH=0.9583;" parent="1" vertex="1">
          <mxGeometry x="120" y="332.08000000000004" width="53.125" height="47.915" as="geometry" />
        </mxCell>
        <mxCell id="zP9zvtam1xZaHFGVFROY-25" value="honeypot&lt;br&gt;&lt;br&gt;Dionada" style="text;html=1;align=center;verticalAlign=middle;whiteSpace=wrap;rounded=0;" parent="1" vertex="1">
          <mxGeometry x="113.13" y="290" width="60" height="30" as="geometry" />
        </mxCell>
        <mxCell id="zP9zvtam1xZaHFGVFROY-27" value="" style="endArrow=none;html=1;rounded=0;exitX=0.691;exitY=0.208;exitDx=0;exitDy=0;exitPerimeter=0;" parent="1" source="p9LOUu4Nrlmv1pkFJnrn-1" edge="1">
          <mxGeometry width="50" height="50" relative="1" as="geometry">
            <mxPoint x="410" y="370" as="sourcePoint" />
            <mxPoint x="230" y="370" as="targetPoint" />
            <Array as="points">
              <mxPoint x="240" y="356" />
            </Array>
          </mxGeometry>
        </mxCell>
        <mxCell id="zP9zvtam1xZaHFGVFROY-28" value="SOC - HOMELAB" style="text;html=1;align=center;verticalAlign=middle;whiteSpace=wrap;rounded=0;" parent="1" vertex="1">
          <mxGeometry x="190" y="10" width="340" height="90" as="geometry" />
        </mxCell>
        <mxCell id="p9LOUu4Nrlmv1pkFJnrn-2" value="DMZ" style="text;html=1;align=center;verticalAlign=middle;whiteSpace=wrap;rounded=0;" parent="1" vertex="1">
          <mxGeometry x="240" y="320" width="60" height="30" as="geometry" />
        </mxCell>
        <mxCell id="p9LOUu4Nrlmv1pkFJnrn-3" value="" style="endArrow=none;html=1;rounded=0;exitX=0.691;exitY=0.208;exitDx=0;exitDy=0;exitPerimeter=0;" parent="1" source="zP9zvtam1xZaHFGVFROY-24" target="p9LOUu4Nrlmv1pkFJnrn-1" edge="1">
          <mxGeometry width="50" height="50" relative="1" as="geometry">
            <mxPoint x="157" y="342" as="sourcePoint" />
            <mxPoint x="230" y="370" as="targetPoint" />
            <Array as="points" />
          </mxGeometry>
        </mxCell>
        <mxCell id="p9LOUu4Nrlmv1pkFJnrn-1" value="" style="shape=mxgraph.networks2.icon;aspect=fixed;fillColor=#EDEDED;strokeColor=#000000;gradientColor=#5B6163;network2IconShadow=1;network2bgFillColor=none;network2Icon=mxgraph.networks2.network;network2IconW=1;network2IconH=0.8601;" parent="1" vertex="1">
          <mxGeometry x="232.97" y="340" width="46.5" height="40" as="geometry" />
        </mxCell>
        <mxCell id="p9LOUu4Nrlmv1pkFJnrn-4" value="" style="endArrow=none;html=1;rounded=0;exitX=0.204;exitY=0.866;exitDx=0;exitDy=0;exitPerimeter=0;entryX=0.626;entryY=0.578;entryDx=0;entryDy=0;entryPerimeter=0;" parent="1" source="zP9zvtam1xZaHFGVFROY-4" target="p9LOUu4Nrlmv1pkFJnrn-1" edge="1">
          <mxGeometry width="50" height="50" relative="1" as="geometry">
            <mxPoint x="470" y="370" as="sourcePoint" />
            <mxPoint x="520" y="320" as="targetPoint" />
          </mxGeometry>
        </mxCell>
        <mxCell id="p9LOUu4Nrlmv1pkFJnrn-5" value="Router casa" style="text;html=1;align=center;verticalAlign=middle;whiteSpace=wrap;rounded=0;" parent="1" vertex="1">
          <mxGeometry x="250" y="230" width="60" height="30" as="geometry" />
        </mxCell>
        <mxCell id="p9LOUu4Nrlmv1pkFJnrn-6" value="se ha apagado el movil :( vuelvo en un unos minutos" style="text;html=1;align=center;verticalAlign=middle;whiteSpace=wrap;rounded=0;" parent="1" vertex="1">
          <mxGeometry x="540" y="116.11" width="180" height="43.89" as="geometry" />
        </mxCell>
      </root>
    </mxGraphModel>
  </diagram>
  <diagram id="OqizqsIX7nkmlO0SQJQv" name="Page-2">
    <mxGraphModel dx="961" dy="424" grid="1" gridSize="10" guides="1" tooltips="1" connect="1" arrows="1" fold="1" page="1" pageScale="1" pageWidth="850" pageHeight="1100" math="0" shadow="0">
      <root>
        <mxCell id="0" />
        <mxCell id="1" parent="0" />
        <mxCell id="Jh2AKk5XOcC1myH1XftX-1" value="" style="fillColorStyles=neutralFill;neutralFill=#9DA6A8;shape=mxgraph.networks2.icon;aspect=fixed;fillColor=#EDEDED;strokeColor=#000000;gradientColor=#5B6163;network2IconShadow=1;network2bgFillColor=none;network2Icon=mxgraph.networks2.router;network2IconXOffset=0.0001;network2IconYOffset=-0.1142;network2IconW=1;network2IconH=0.5485;" vertex="1" parent="1">
          <mxGeometry x="463" y="500" width="54.69" height="30" as="geometry" />
        </mxCell>
        <mxCell id="Jh2AKk5XOcC1myH1XftX-2" value="" style="shape=mxgraph.networks2.icon;aspect=fixed;fillColor=#EDEDED;strokeColor=#000000;gradientColor=#5B6163;network2IconShadow=1;network2bgFillColor=none;network2Icon=mxgraph.networks2.cloud;network2IconYOffset=-0.08;network2IconW=1.0004;network2IconH=0.7222;" vertex="1" parent="1">
          <mxGeometry x="463" y="380" width="50.019999999999996" height="36.11" as="geometry" />
        </mxCell>
        <mxCell id="Jh2AKk5XOcC1myH1XftX-3" style="edgeStyle=orthogonalEdgeStyle;rounded=0;orthogonalLoop=1;jettySize=auto;html=1;entryX=0.534;entryY=0.48;entryDx=0;entryDy=0;entryPerimeter=0;" edge="1" source="Jh2AKk5XOcC1myH1XftX-2" target="Jh2AKk5XOcC1myH1XftX-1" parent="1">
          <mxGeometry relative="1" as="geometry" />
        </mxCell>
        <mxCell id="Jh2AKk5XOcC1myH1XftX-4" value="" style="shape=mxgraph.networks2.icon;aspect=fixed;fillColor=#EDEDED;strokeColor=#000000;gradientColor=#5B6163;network2IconShadow=1;network2bgFillColor=none;network2Icon=mxgraph.networks2.firewall;network2IconXOffset=0.0001;network2IconYOffset=0.0001;network2IconW=1;network2IconH=0.608;" vertex="1" parent="1">
          <mxGeometry x="563" y="590" width="49.34" height="30" as="geometry" />
        </mxCell>
        <mxCell id="Jh2AKk5XOcC1myH1XftX-5" style="edgeStyle=orthogonalEdgeStyle;rounded=0;orthogonalLoop=1;jettySize=auto;html=1;entryX=0.573;entryY=0.202;entryDx=0;entryDy=0;entryPerimeter=0;" edge="1" source="Jh2AKk5XOcC1myH1XftX-1" target="Jh2AKk5XOcC1myH1XftX-4" parent="1">
          <mxGeometry relative="1" as="geometry">
            <Array as="points">
              <mxPoint x="583" y="515" />
              <mxPoint x="583" y="596" />
            </Array>
          </mxGeometry>
        </mxCell>
        <mxCell id="Jh2AKk5XOcC1myH1XftX-7" value="&lt;div&gt;PFsense &lt;br&gt;&lt;/div&gt;&lt;div&gt;&lt;br&gt;&lt;/div&gt;&lt;div&gt;IDS /IPS&lt;/div&gt;" style="text;html=1;align=center;verticalAlign=middle;whiteSpace=wrap;rounded=0;" vertex="1" parent="1">
          <mxGeometry x="643" y="580" width="60" height="30" as="geometry" />
        </mxCell>
        <mxCell id="Jh2AKk5XOcC1myH1XftX-8" value="Internet -&amp;gt; ISP -&amp;gt; Yoigo" style="text;html=1;align=center;verticalAlign=middle;whiteSpace=wrap;rounded=0;" vertex="1" parent="1">
          <mxGeometry x="518" y="383.05999999999995" width="125" height="26.94" as="geometry" />
        </mxCell>
        <mxCell id="Jh2AKk5XOcC1myH1XftX-10" value="SOC - HOMELAB" style="text;html=1;align=center;verticalAlign=middle;whiteSpace=wrap;rounded=0;" vertex="1" parent="1">
          <mxGeometry x="343" y="280" width="340" height="90" as="geometry" />
        </mxCell>
        <mxCell id="Jh2AKk5XOcC1myH1XftX-15" value="Router casa" style="text;html=1;align=center;verticalAlign=middle;whiteSpace=wrap;rounded=0;" vertex="1" parent="1">
          <mxGeometry x="403" y="500" width="60" height="30" as="geometry" />
        </mxCell>
        <mxCell id="Jh2AKk5XOcC1myH1XftX-16" value="Spring 1" style="text;html=1;align=center;verticalAlign=middle;whiteSpace=wrap;rounded=0;" vertex="1" parent="1">
          <mxGeometry x="230" y="600" width="60" height="30" as="geometry" />
        </mxCell>
        <mxCell id="Jh2AKk5XOcC1myH1XftX-17" value="" style="endArrow=classic;html=1;rounded=0;" edge="1" parent="1">
          <mxGeometry width="50" height="50" relative="1" as="geometry">
            <mxPoint x="650" y="510" as="sourcePoint" />
            <mxPoint x="610" y="560" as="targetPoint" />
          </mxGeometry>
        </mxCell>
        <mxCell id="Jh2AKk5XOcC1myH1XftX-18" value="" style="endArrow=classic;html=1;rounded=0;" edge="1" parent="1" source="Jh2AKk5XOcC1myH1XftX-20">
          <mxGeometry width="50" height="50" relative="1" as="geometry">
            <mxPoint x="670" y="680" as="sourcePoint" />
            <mxPoint x="610" y="650" as="targetPoint" />
          </mxGeometry>
        </mxCell>
        <mxCell id="Jh2AKk5XOcC1myH1XftX-19" value="Interfaz de red 10.0.2.0" style="text;html=1;align=center;verticalAlign=middle;whiteSpace=wrap;rounded=0;" vertex="1" parent="1">
          <mxGeometry x="600" y="450" width="150" height="50" as="geometry" />
        </mxCell>
        <mxCell id="Jh2AKk5XOcC1myH1XftX-21" value="" style="endArrow=classic;html=1;rounded=0;" edge="1" parent="1" target="Jh2AKk5XOcC1myH1XftX-20">
          <mxGeometry width="50" height="50" relative="1" as="geometry">
            <mxPoint x="670" y="680" as="sourcePoint" />
            <mxPoint x="600" y="660" as="targetPoint" />
          </mxGeometry>
        </mxCell>
        <mxCell id="Jh2AKk5XOcC1myH1XftX-20" value="Interfaz de red 10.0.5.x" style="text;html=1;align=center;verticalAlign=middle;whiteSpace=wrap;rounded=0;" vertex="1" parent="1">
          <mxGeometry x="630" y="680" width="130" height="40" as="geometry" />
        </mxCell>
        <mxCell id="Jh2AKk5XOcC1myH1XftX-22" value="" style="endArrow=none;html=1;rounded=0;exitX=0.373;exitY=1.036;exitDx=0;exitDy=0;exitPerimeter=0;" edge="1" parent="1" source="Jh2AKk5XOcC1myH1XftX-4">
          <mxGeometry width="50" height="50" relative="1" as="geometry">
            <mxPoint x="670" y="740" as="sourcePoint" />
            <mxPoint x="581" y="710" as="targetPoint" />
          </mxGeometry>
        </mxCell>
      </root>
    </mxGraphModel>
  </diagram>
</mxfile>
